PathFileType	4	(X/Y/Z)	8_coords_data.trc
DataRate	CameraRate	NumFrames	NumMarkers	Units	OrigDataRate	OrigDataStartFrame	OrigNumFrames
30.0	30.0	9	21	m	30.0	21	62
Frame#	Time	THUMB_TIP	THUMB_IP	THUMB_MCP	THUMB_CMC	INDEX_TIP	INDEX_DIP	INDEX_PIP	INDEX_MCP	MIDDLE_TIP	MIDDLE_DIP	MIDDLE_PIP	MIDDLE_MCP	RING_TIP	RING_DIP	RING_PIP	RING_MCP	PINKY_TIP	PINKY_DIP	PINKY_PIP	PINKY_MCP	WRIST
X1	Y1	Z1	X2	Y2	Z2	X3	Y3	Z3	X4	Y4	Z4	X5	Y5	Z5	X6	Y6	Z6	X7	Y7	Z7	X8	Y8	Z8	X9	Y9	Z9	X10	Y10	Z10	X11	Y11	Z11	X12	Y12	Z12	X13	Y13	Z13	X14	Y14	Z14	X15	Y15	Z15	X16	Y16	Z16	X17	Y17	Z17	X18	Y18	Z18	X19	Y19	Z19	X20	Y20	Z20	X21	Y21	Z21
19	0.6666666666666637	0.4935073099219983	-0.0193539910220607	-0.17056351460941027	0.4861124004021461	-0.02437436960887418	-0.14939487950843455	0.47603636066968824	-0.030298400963133743	-0.12054701518845967	0.47366634342657243	-0.03345755293958941	-0.07611400069408852	0.5683302543391094	0.02140077554314579	-0.17621350630232224	0.554976208634362	0.01668367178928798	-0.1649255305984655	0.5358934456253485	0.01216740956094109	-0.149194625842965	0.5084507410045532	-0.0009066784078579637	-0.11936842459507052	0.5930133181612478	0.0420094144958566	-0.14306163554394974	0.577807861629572	0.03559646866415933	-0.13560052185877952	0.5524737296428329	0.02865689955989148	-0.12297381654323591	0.5183756967296518	0.009278775299894515	-0.10157380783726244	0.6024683044789289	0.037872906431126285	-0.10547128031952796	0.5857971893707181	0.033903593742473204	-0.09987498888425683	0.562554888645074	0.029027210162792527	-0.09237856846097858	0.5292359924892184	0.00815816280631565	-0.08294168044699635	0.6040893656690554	0.010736450345156245	-0.05487271651823683	0.587083288534155	0.009183224941762824	-0.05604780431413686	0.566241304259073	0.007770361113131119	-0.05815197309989972	0.5314559488218773	7.267717493397718e-05	-0.06377408659000106	0.4622830810018609	-0.023011742144276925	-0.051989820119430985
20	0.6999999999999968	0.49370945108633957	-0.01942673548516316	-0.17050344542096207	0.48621698291231674	-0.02443403135694	-0.14936603998146364	0.4760852764501271	-0.03034909039967071	-0.1205358370566656	0.4736750719066759	-0.033474372391869456	-0.07610258907131151	0.5685030012857407	0.021272767372544688	-0.17609550175273164	0.5551194018314517	0.016578586560122233	-0.16483300060301181	0.5360021648206464	0.012094801754492512	-0.1491346963669007	0.5085100491079428	-0.0009568860227237019	-0.11934420939865231	0.5931119794086843	0.04190142048909329	-0.14299700441402874	0.5778979145771587	0.035499765969655206	-0.13554374668898717	0.5525488227800468	0.028587774388934117	-0.12293194794932899	0.5184269422124627	0.009245753205648799	-0.10153728964224534	0.6025489903474908	0.03776898161131892	-0.10538886320825475	0.585870827678881	0.033814826530683684	-0.09980284963884034	0.5626205963709447	0.028953803146933743	-0.0923210600942127	0.5292714985965984	0.008128121558427792	-0.08289505892663068	0.6041040777898549	0.010694841105553188	-0.05477273157267348	0.5870984234705416	0.009146503433539732	-0.055960322253609474	0.5662571465787702	0.007743545794174911	-0.05807808200926362	0.5314737912826044	4.861271658263e-05	-0.0637163131389773	0.4622830810018609	-0.023011742144276925	-0.051989820119430985
21	0.7333333333333302	0.49389167361774833	-0.019505982622055273	-0.17045480067352953	0.4863083498359446	-0.024490562205313537	-0.1493444438125361	0.4761408134668683	-0.030393538786205432	-0.12052438011258987	0.4736850932190626	-0.03348892388820246	-0.07609153157533255	0.5686577774128874	0.02111494884981313	-0.17600506961510215	0.555248670031373	0.016451213563657197	-0.164760274712051	0.5360996599258554	0.012010681395086098	-0.14908842354383647	0.508561349720163	-0.0010036760892534469	-0.11932428296687914	0.5931994083393949	0.04180332936515807	-0.1429426228788452	0.5779777554204301	0.035412261999007044	-0.1354957752010766	0.5526177751571633	0.028522386987640203	-0.12289376848093614	0.5184733968361653	0.009211390483541693	-0.101506979004924	0.6026093383894991	0.03769268135830539	-0.10532555627573109	0.5859269165256038	0.03374781815452832	-0.09974569471306532	0.5626702106120037	0.02889989251799807	-0.09227553902051161	0.5293012149722608	0.008103406062221485	-0.08285550106466871	0.6041158226173012	0.010666128630637761	-0.0546896344091331	0.587110646046526	0.009120618479045106	-0.055887702924736604	0.5662705104474394	0.00772003353902273	-0.05801822610871443	0.5314869491000208	3.399394781067322e-05	-0.0636673062455772	0.462283081001861	-0.023011742144276925	-0.051989820119430985
22	0.7666666666666633	0.4940488022203775	-0.019582753418756038	-0.17041566269535843	0.48639516426060825	-0.024546076566210218	-0.14932568286334524	0.47618500288897847	-0.030433620912090786	-0.12051753425326328	0.4736898851646816	-0.033499159766964715	-0.07608481141219536	0.5688014614581555	0.02097936788480792	-0.1759148723429703	0.555364743329749	0.016353171170340075	-0.16468754363589114	0.5361833612878582	0.011952412100699528	-0.14904408699824231	0.5086097411801973	-0.0010382573428423525	-0.11930229694506905	0.5932723866168245	0.041713362811378385	-0.14290200919328366	0.5780444227984279	0.03533273722091668	-0.1354591108989396	0.5526730395100374	0.028469291357981374	-0.1228656375527914	0.5185207325437262	0.009173135871488713	-0.10147811237291265	0.6026559678755258	0.03763429301609211	-0.10526885298279087	0.5859691162164338	0.03369700701761369	-0.09969689096985107	0.5627066891174884	0.028863962338110838	-0.09223491109905368	0.5293250327314563	0.008083959738548918	-0.08282335740760188	0.6041229446566705	0.010656792798496406	-0.05461605116501589	0.5871187457439604	0.0091064698227864	-0.05582175345330048	0.5662795432107379	0.007704465065856647	-0.05796045386263221	0.5314964703380102	2.7124991859528436e-05	-0.06362435198307165	0.4622830810018609	-0.023011742144276925	-0.051989820119430985
23	0.7999999999999965	0.49417823499800884	-0.01962947187184927	-0.1703816239074497	0.48647241671178465	-0.024577954256943424	-0.14930716337760203	0.4762289205035477	-0.030458268793980503	-0.12050937376837428	0.4736947288848732	-0.03350977070912364	-0.0760778960875485	0.5689997486615422	0.020813163338838314	-0.17577584865419932	0.5555196047120974	0.01624269525921107	-0.16457778897247974	0.5362908990017322	0.011897707063882712	-0.1489768983797402	0.5086636667967515	-0.0010758277366662572	-0.11927741135603842	0.5933677412340044	0.041595937370256575	-0.14285025557280656	0.5781306466219638	0.03523061892585222	-0.135412939599618	0.5527479520630875	0.028394204098521447	-0.12282755922239252	0.5185699110968864	0.009138423696726683	-0.10144475403152614	0.6027227893691984	0.03754157663900537	-0.1051946865650073	0.5860301134083933	0.033616891063840915	-0.0996312872081705	0.5627585316505682	0.028806470245486104	-0.09218324632219221	0.5293580793944017	0.008050640782723328	-0.08278504615427346	0.6041410592209618	0.010597841277704578	-0.054539494489704854	0.5871375977044206	0.009046092302631537	-0.05575373152334434	0.5662991983853709	0.007653620550138296	-0.057906440337451515	0.531513807404098	-4.019211382155774e-06	-0.06358275767907101	0.4622830810018609	-0.023011742144276925	-0.051989820119430985
24	0.8333333333333297	0.4942564773224021	-0.019676792788848374	-0.17036527741252788	0.4865279401200324	-0.024612016259037528	-0.14929602773412484	0.47625964257092446	-0.030481504986318853	-0.1205048629865273	0.4737028930901668	-0.033511632886251586	-0.07607321484015883	0.5691892583197147	0.02062446672999929	-0.17564044787182803	0.555657740649404	0.016124396540963204	-0.1644758879686426	0.5363752091932591	0.011849501826604159	-0.14892213958364137	0.5086870206072911	-0.001101973941027845	-0.11926982799974772	0.5934230445260659	0.04150616860507772	-0.14283402972660744	0.5781808296532404	0.035151115469490235	-0.13539842716767006	0.5527900387031492	0.02833521876559586	-0.1228182508155431	0.5185979396115394	0.009106422934346048	-0.10143363738462857	0.6027591961818661	0.03748478548871448	-0.10515618409996863	0.5860634292162057	0.03356610692321271	-0.09959782789254173	0.5627846000234887	0.028771748624277227	-0.09216208859387487	0.5293735404437265	0.008028609562427014	-0.08277357893481158	0.6041455458851327	0.010582911104024872	-0.05449690758652259	0.5871431064001928	0.009027304064689434	-0.05572048361608839	0.5663056105681976	0.007636617480559549	-0.05788306940081567	0.5315205223023935	-1.647798973336556e-05	-0.06356736487719639	0.4622830810018609	-0.023011742144276925	-0.051989820119430985
25	0.8666666666666629	0.4942681606230709	-0.019707596796879057	-0.170366874116038	0.4865490227519629	-0.0246428858176877	-0.14929419434321567	0.47627291404267524	-0.03049958831640409	-0.1205032126712332	0.4737074558846507	-0.03351205720368022	-0.07607086571946148	0.5693634375078948	0.020432294414917007	-0.17551876787031606	0.5557792329889997	0.016014162425262546	-0.16438550701327953	0.5364448007685181	0.011813052191627316	-0.14887614737090715	0.5087083434113867	-0.0011205093164756708	-0.11926115093342382	0.5934701026906731	0.04142376563660799	-0.14282858593958248	0.5782223989106259	0.035082345503350654	-0.1353925977652071	0.5528265789239875	0.028284371811726827	-0.12281287475974101	0.5186340037906737	0.009069474326124927	-0.1014165329843229	0.6027945699738841	0.03743492696523898	-0.10511961304273115	0.5860959932299433	0.033526883084213255	-0.09956221007455462	0.5628118194390367	0.02874068748135994	-0.09213795512701345	0.5293864778228454	0.008017207220391231	-0.08275687108975205	0.604149593027645	0.010560937847065577	-0.05445374952385479	0.5871477873712518	0.009003367454343603	-0.05568361898601387	0.5663105607559036	0.0076182529736849025	-0.05785236605657912	0.5315248073966415	-2.1146103756364276e-05	-0.06355099711712187	0.4622830810018608	-0.023011742144276925	-0.051989820119430985
26	0.8999999999999961	0.4942588175314748	-0.019734007420559974	-0.17037297670626678	0.4865581322739818	-0.024670412461499813	-0.14929380803582792	0.4762782409137869	-0.03051173150719666	-0.12050105156082241	0.4737053495683051	-0.0335191077858743	-0.0760687894302175	0.5695430873904852	0.02022959847314032	-0.17538848088090667	0.5558996045657	0.015899053649115258	-0.16429335772084658	0.5365090095207834	0.011775133283109085	-0.14883347616829584	0.508724399650428	-0.0011472509919338014	-0.11925876512997324	0.5935201607305622	0.0413219427482705	-0.14282634621104914	0.5782664950092687	0.03499385365251939	-0.13539122883071983	0.5528629294064701	0.02821825350508611	-0.12281507491521748	0.5186575753767924	0.009029953357377773	-0.10141528953905393	0.6028328137795044	0.03736529672693467	-0.10508464363902015	0.5861299714509399	0.03346778144622675	-0.09953266806416688	0.5628385594602595	0.02869585857395318	-0.09212194214955771	0.5293996773462462	0.007985595635241372	-0.08275994418039817	0.604161320972375	0.010506295067743587	-0.054436358564178	0.5871598032374251	0.008952312773679583	-0.05567471785691941	0.5663230954938614	0.00756964519163017	-0.05785000169285098	0.5315341236876131	-5.086993014780106e-05	-0.06355426684647247	0.4622830810018609	-0.023011742144276925	-0.051989820119430985
27	0.9333333333333294	0.4942569201062931	-0.019716637817458582	-0.17037608316285663	0.4865629003915857	-0.02465552537744442	-0.14929506207042592	0.47627992540343245	-0.030498631020444922	-0.12050376925753281	0.47370153123673653	-0.03351491392604966	-0.07607242985667173	0.5697120943307558	0.020103185526780698	-0.17523409747554952	0.5560115666390186	0.01584910973097564	-0.16417975986122402	0.5365634942057929	0.011787535411295957	-0.14877567190777075	0.5087196386107772	-0.0011462529235667374	-0.11926172742532509	0.5935538824202743	0.04125821293033427	-0.1428191937526202	0.5782957798921438	0.03493871424604067	-0.13538587392765203	0.5528861229553964	0.028177085442676164	-0.12281450724449755	0.5186739002582469	0.008998282832589077	-0.1014171880300736	0.602851077469718	0.037324480142534866	-0.10506256976430711	0.586146337787497	0.03343004286714257	-0.09951414382019741	0.5628485758789527	0.02867322622344315	-0.09211367326279346	0.5294090773332449	0.00795605150999723	-0.08276918596256216	0.6041676088703853	0.010479223790505365	-0.05445128137463695	0.5871662202021642	0.008924955890499131	-0.05569105338879693	0.5663300562431126	0.007535119227801479	-0.05786697722076756	0.5315406680846206	-8.091939014909233e-05	-0.06357468064050409	0.4622830810018609	-0.023011742144276925	-0.051989820119430985
